<?xml version="1.0" encoding="iso-8859-1"?>
<!-- Generator: Adobe Illustrator 19.0.0, SVG Export Plug-In . SVG Version: 6.00 Build 0)  -->
<svg version="1.1" id="Layer_1" xmlns="http://www.w3.org/2000/svg" xmlns:xlink="http://www.w3.org/1999/xlink" x="0px" y="0px"
	 viewBox="0 0 512 512" style="enable-background:new 0 0 512 512;" xml:space="preserve">
<path style="fill:#EDEDEE;" d="M512,353.567H0l34.395-195.134h443.209L512,353.567z"/>
<path style="fill:#DDDCDF;" d="M512,353.567H256V158.433h221.605L512,353.567z"/>
<g>
	<path style="fill:#AAA9AF;" d="M87.93,276.521V229.19h21.731c9.266,0,15.933,8.334,15.933,16.4c0,5.466-2.533,10.532-6.8,13.532
		l10.667,17.399h-14.667l-8.998-14.532h-4.867v14.532H87.93z M100.931,250.656h8.199c1.599,0,3.267-1.868,3.267-5.068
		c0-3.267-2.001-5.068-3.601-5.068h-7.865V250.656z"/>
	<path style="fill:#AAA9AF;" d="M167.385,265.188v11.333h-33.73V229.19h33.13v11.333h-20.132v6.667h17.199v10.534h-17.199v7.465
		h20.732V265.188z"/>
	<path style="fill:#AAA9AF;" d="M201.711,244.655c0,0-6.865-4.332-12.533-4.332c-2.265,0-3.799,0.666-3.799,2.333
		c0,2.467,3.335,3.001,8.799,4.734c8.733,2.733,14.266,5.799,14.266,14.665c0,11.4-9.198,15.066-17.998,15.066
		c-6.865,0-14.934-2.199-20.599-5.534l5.6-11.398c0,0,7.933,5.198,15.197,5.198c2.8,0,3.801-0.799,3.801-2.067
		c0-2.733-4.866-3.332-10.534-5.266c-8.332-2.8-11.999-6.333-11.999-13.266c0-10.464,8.332-15.999,17.665-15.999
		c6.865,0,13.464,3.001,17.731,5.132L201.711,244.655z"/>
	<path style="fill:#AAA9AF;" d="M247.904,265.188v11.333h-33.732V229.19h33.131v11.333h-20.131v6.667h17.199v10.534h-17.199v7.465
		h20.732V265.188z"/>
	<path style="fill:#AAA9AF;" d="M253.964,276.521V229.19h21.731c9.266,0,15.933,8.334,15.933,16.4c0,5.466-2.533,10.532-6.8,13.532
		l10.667,17.399H280.83l-8.998-14.532h-4.866v14.532H253.964z M266.963,250.656h8.199c1.599,0,3.267-1.868,3.267-5.068
		c0-3.267-2.001-5.068-3.601-5.068h-7.865V250.656z"/>
	<path style="fill:#AAA9AF;" d="M306.621,229.189l9.266,30.999l9.133-30.999h13.667l-17.399,47.331h-10.8l-17.598-47.331H306.621z"
		/>
	<path style="fill:#AAA9AF;" d="M375.946,265.188v11.333h-33.732V229.19h33.131v11.333h-20.132v6.667h17.199v10.534h-17.199v7.465
		h20.733V265.188z"/>
	<path style="fill:#AAA9AF;" d="M382.007,276.521V229.19h18.198c15.732,0,23.866,10.534,23.866,23.599
		c0,14.333-9.464,23.732-23.866,23.732H382.007z M400.204,240.522h-5.198v24.666h5.198c6.8,0,10.667-5.266,10.667-12.399
		C410.871,245.456,406.871,240.522,400.204,240.522z"/>
</g>
<g>
</g>
<g>
</g>
<g>
</g>
<g>
</g>
<g>
</g>
<g>
</g>
<g>
</g>
<g>
</g>
<g>
</g>
<g>
</g>
<g>
</g>
<g>
</g>
<g>
</g>
<g>
</g>
<g>
</g>
</svg>
